<svg width="64" height="64" viewBox="0 0 64 64" fill="none" xmlns="http://www.w3.org/2000/svg">
  <rect width="64" height="64" rx="8" fill="#FF9A0E"/>
  <path d="M32 16C23.7157 16 17 22.7157 17 31C17 39.2843 23.7157 46 32 46C40.2843 46 47 39.2843 47 31C47 22.7157 40.2843 16 32 16Z" fill="#FFBA26"/>
  <path d="M32 22C27.0294 22 23 26.0294 23 31C23 35.9706 27.0294 40 32 40C36.9706 40 41 35.9706 41 31C41 26.0294 36.9706 22 32 22Z" fill="white"/>
  <circle cx="32" cy="31" r="4" fill="#FF9A0E"/>
  <path d="M28 28L30 26M36 28L34 26M28 34L30 36M36 34L34 36" stroke="#FFBA26" stroke-width="2" stroke-linecap="round"/>
</svg>
