<svg width="23" height="14" viewBox="0 0 23 14" fill="none" xmlns="http://www.w3.org/2000/svg">
<path d="M18.0703 4.5C20.5312 4.53516 22.5352 6.53906 22.5703 8.96484C22.5703 11.4961 20.5312 13.5352 18 13.5C15.5742 13.5 13.5703 11.4961 13.5703 9.03516C13.5352 7.66406 14.168 6.43359 15.1172 5.58984L14.6953 4.85156C13.3242 5.97656 12.6562 7.59375 12.7266 9.24609C12.7266 9.73828 12.3398 10.125 11.8828 10.125H8.92969C8.40234 12.0938 6.64453 13.5 4.57031 13.5C2.03906 13.5 0 11.4609 0.0703125 8.89453C0.105469 6.53906 2.00391 4.60547 4.39453 4.53516C4.88672 4.5 5.37891 4.57031 5.83594 4.71094L6.22266 3.97266C5.90625 3.48047 5.41406 3.09375 4.57031 3.09375H2.60156C2.10938 3.09375 1.75781 2.74219 1.75781 2.28516C1.72266 1.79297 2.14453 1.40625 2.60156 1.40625H4.57031C6.50391 1.40625 7.45312 2.00391 8.05078 2.8125H13.4648L12.7969 1.6875H10.4766C10.1602 1.6875 9.91406 1.44141 9.91406 1.125V0.5625C9.91406 0.28125 10.1602 0 10.4766 0H13.2891C13.5703 0 13.8516 0.175781 13.9922 0.421875L14.8008 1.75781L16.1016 0.28125C16.2773 0.105469 16.4883 0 16.7344 0H18.3516C18.8086 0 19.1953 0.386719 19.1953 0.84375V1.96875C19.1953 2.46094 18.8086 2.8125 18.3516 2.8125H15.4336L16.5938 4.74609C17.0508 4.60547 17.5781 4.5 18.0703 4.5ZM4.57031 11.8125C5.69531 11.8125 6.67969 11.1445 7.13672 10.125H4.28906C3.62109 10.125 3.23438 9.45703 3.55078 8.89453L4.99219 6.22266C4.85156 6.22266 4.71094 6.1875 4.57031 6.1875C2.98828 6.1875 1.75781 7.45312 1.75781 9C1.75781 10.582 2.98828 11.8125 4.57031 11.8125ZM20.8477 9.17578C20.9531 7.55859 19.6523 6.1875 18.0703 6.22266C17.8594 6.22266 17.6836 6.22266 17.5078 6.25781L19.1953 9.10547C19.3711 9.38672 19.2656 9.73828 19.0195 9.87891L18.5273 10.1602C18.2461 10.3359 17.9297 10.2305 17.7539 9.98438L16.0312 7.06641C15.5391 7.59375 15.2578 8.26172 15.2578 9C15.2578 10.6172 16.5938 11.918 18.2109 11.8125C19.6172 11.7422 20.7773 10.582 20.8477 9.17578Z" fill="#F17228"/>
</svg>
