<svg width="16" height="18" viewBox="0 0 16 18" fill="none" xmlns="http://www.w3.org/2000/svg">
<path d="M12.375 5.625H15.75V15.1875C15.75 16.7695 14.4844 18 12.9375 18H2.8125C1.23047 18 0 16.7695 0 15.1875V5.625H3.375V4.5C3.375 2.03906 5.37891 0 7.875 0C10.3359 0 12.375 2.03906 12.375 4.5V5.625ZM5.625 4.5V5.625H10.125V4.5C10.125 3.26953 9.10547 2.25 7.875 2.25C6.60938 2.25 5.625 3.26953 5.625 4.5ZM11.25 8.71875C11.707 8.71875 12.0938 8.36719 12.0938 7.875C12.0938 7.41797 11.707 7.03125 11.25 7.03125C10.7578 7.03125 10.4062 7.41797 10.4062 7.875C10.4062 8.36719 10.7578 8.71875 11.25 8.71875ZM4.5 8.71875C4.95703 8.71875 5.34375 8.36719 5.34375 7.875C5.34375 7.41797 4.95703 7.03125 4.5 7.03125C4.00781 7.03125 3.65625 7.41797 3.65625 7.875C3.65625 8.36719 4.00781 8.71875 4.5 8.71875Z" fill="#757575"/>
</svg>
